PathFileType	4	(X/Y/Z)	D:\TRACE\spot_10-12-23\spot_arm_body_motion_3_10-v60.trc
DataRate	CameraRate	NumFrames	NumMarkers	Units	OrigDataRate	OrigDataStartFrame	OrigNumFrames
100.00	100.00	      31	9	mm	100.00	6126	      7000
Frame#	Time	front left toe			Front right toe			aft left toe			aft right toe			Arm			FL body			FR body			AL Body			AR Body			
		X1	Y1	Z1	X2	Y2	Z2	X3	Y3	Z3	X4	Y4	Z4	X5	Y5	Z5	X6	Y6	Z6	X7	Y7	Z7	X8	Y8	Z8	X9	Y9	Z9	

6126	61.250	-179.67697	164.48355	-438.93277	188.86504	17.44165	-454.86191	-175.18031	14.11255	152.95517	163.92523	11.88087	121.34669	76.19242	814.85120	-734.82483	-60.69970	591.40784	-482.29672	91.45166	598.36597	-474.33527	-109.66220	553.54498	399.93405	40.52891	553.77081	409.81015	
6127	61.260	-180.31660	147.96886	-440.68225	188.84985	17.48811	-454.86682	-175.40240	13.86825	152.89503	163.88516	11.89685	121.37553	75.69186	815.40491	-735.60095	-60.34620	591.50372	-482.35449	91.56342	598.48706	-474.21051	-111.49644	553.19751	399.70279	38.40706	553.24219	410.13104	
6128	61.270	-182.23453	130.95422	-442.58899	189.67285	17.45461	-454.41321	-175.37379	13.48364	152.88281	163.57033	12.42580	121.62421	74.09035	815.71606	-736.53003	-60.19392	591.69336	-482.43494	91.79295	598.52289	-474.03012	-113.71960	552.87903	399.53104	36.54779	552.78479	410.33813	
6129	61.280	-184.51337	116.71796	-442.42615	190.40993	17.20220	-454.05933	-175.33896	13.19082	152.83885	163.62820	12.54836	121.78958	71.88938	816.15674	-737.48096	-60.13447	591.76276	-482.54819	91.77575	598.32214	-473.84796	-115.34975	552.28210	399.22690	34.54454	552.24622	410.55225	
6130	61.290	-185.97734	104.76885	-440.26871	191.03874	17.47557	-453.42923	-175.35182	13.02262	152.85625	164.01080	12.42856	121.68026	69.87498	816.39917	-737.95984	-60.33711	591.71198	-482.68323	91.49957	598.04480	-473.70190	-117.14442	551.91742	399.08633	32.93253	551.52869	410.36041	
6131	61.300	-189.03152	96.23417	-437.35846	190.74504	17.27027	-453.88129	-175.31013	12.95081	152.89925	164.25226	12.52533	121.78947	67.71255	816.35132	-738.31903	-61.07721	591.56915	-483.01093	90.76971	597.81604	-473.77185	-118.31461	551.32593	398.77844	31.87702	551.25610	410.60422	
6132	61.310	-191.92073	90.50948	-434.80545	190.80788	17.55290	-454.00208	-175.23515	12.87570	152.92953	164.40720	12.60628	121.85662	66.81923	816.31494	-738.57208	-62.43386	591.32788	-483.16666	89.52660	597.60309	-474.24335	-119.35254	551.32214	398.86517	30.65656	551.21368	410.38785	
6133	61.320	-196.30667	85.37884	-433.95630	190.63466	17.92197	-454.24228	-174.93707	12.91446	153.00726	164.61255	12.62885	121.85748	66.10928	816.12799	-738.59949	-64.24550	590.95038	-483.17685	87.65616	597.52832	-474.18292	-119.93090	551.34381	398.79807	30.15318	551.20380	410.07266	
6134	61.330	-200.72343	78.14949	-435.14130	190.57980	18.99436	-453.91379	-174.28949	13.16612	153.24127	164.84822	12.40291	121.74650	66.10611	815.87054	-738.35742	-66.63855	590.78430	-483.30536	85.22951	597.51819	-474.77109	-120.32528	551.54608	399.10318	29.41115	551.50116	409.41235	
6135	61.340	-203.63307	73.73121	-436.64401	190.24388	19.49836	-454.27588	-173.65820	13.34795	153.33998	165.36177	12.05618	121.58777	66.72626	815.54968	-737.83099	-69.33401	590.83783	-483.45682	82.75494	597.68207	-475.33936	-120.80091	551.46503	398.67328	29.17317	551.51556	408.98224	
6136	61.350	-204.84084	70.96415	-435.15637	189.95180	20.47645	-454.32755	-173.30368	13.15152	153.58237	165.74767	12.28361	121.65035	67.44973	815.33203	-737.44287	-72.19169	591.05292	-483.41388	79.77425	598.05310	-476.01804	-120.97665	551.42529	398.75974	29.13580	551.09833	408.53970	
6137	61.360	-207.96165	61.40091	-433.72525	189.30608	20.53290	-455.41547	-173.00031	13.16468	153.88818	165.69057	12.19010	121.74245	68.45519	815.22797	-736.91949	-75.00411	591.26385	-483.55704	76.66115	598.46954	-476.82895	-121.96129	551.31012	398.50708	28.41364	551.30798	408.34955	
6138	61.370	-210.71544	46.74282	-433.72958	189.63072	21.39499	-454.75159	-172.77913	13.47992	153.89175	166.34964	12.23929	121.65202	69.37577	815.16962	-736.21667	-78.14828	591.37939	-483.77710	74.13035	598.30908	-476.64188	-122.99862	551.57684	398.48572	27.06986	551.85284	407.90390	
6139	61.380	-211.76056	28.07763	-436.51285	189.33218	21.94501	-454.96060	-172.51268	13.37924	154.10156	166.46260	12.38026	121.68367	70.86385	815.08740	-735.74957	-80.82510	591.64600	-484.01297	71.18752	598.61603	-477.22495	-124.30043	551.82184	398.52097	26.08822	552.02228	407.72620	
6140	61.390	-211.51149	17.04793	-444.48953	189.46521	22.19843	-454.63754	-172.60121	13.34070	154.16884	166.84724	12.18203	121.63843	71.82520	815.01923	-735.58380	-83.30354	591.92126	-483.81033	68.69930	598.95929	-477.90512	-126.24696	551.77972	398.24051	23.85405	551.90076	407.31509	
6141	61.400	-214.16550	18.23774	-436.34937	189.37624	22.93204	-455.04242	-173.47536	12.45209	153.96381	167.47282	12.31350	121.46767	72.72446	815.10669	-735.30646	-85.14256	593.67346	-484.17944	66.61947	600.53247	-477.49963	-128.79639	551.42548	398.22565	21.68340	551.32074	407.33472	
6142	61.410	-217.98799	20.28224	-434.21432	187.88565	23.53010	-455.33295	-174.83565	10.55223	154.21025	165.51947	13.99123	121.53390	72.83385	815.64301	-735.06079	-87.43816	595.61469	-484.35608	64.47962	601.91449	-477.54233	-130.70573	551.67847	397.77420	19.98256	550.65222	407.23138	
6143	61.420	-216.10640	19.70955	-437.41339	187.76387	23.88730	-455.30124	-174.87785	10.11067	154.64613	164.96086	15.01341	121.80301	72.54142	816.42780	-734.91217	-88.99529	597.77679	-484.57510	63.53688	603.01862	-478.15259	-133.36438	552.23096	397.45383	17.25326	550.60687	406.64160	
6144	61.430	-215.72162	20.86276	-435.84128	188.51665	24.19447	-454.35950	-174.64597	10.40781	153.34749	165.23981	14.55087	122.38135	71.85204	816.96198	-734.56299	-90.12241	599.56647	-485.09604	61.89293	604.09912	-477.82413	-136.46173	552.96729	396.83301	13.08190	550.96295	406.25113	
6145	61.440	-215.19560	20.31997	-436.68234	189.34952	24.47421	-454.42828	-174.69199	10.11215	153.87064	165.91032	13.93475	122.48537	71.74048	816.96875	-734.70770	-90.98671	600.76788	-485.57001	61.26634	604.67181	-478.22147	-138.75876	554.04858	396.29535	11.13755	551.62677	405.91537	
6146	61.450	-214.81075	20.61556	-437.07425	189.58421	24.67293	-454.00513	-174.88039	9.35608	153.88426	165.23296	14.43199	121.81484	71.98975	816.81702	-735.21436	-91.66942	602.08374	-486.16061	59.93620	605.80237	-478.51706	-141.03101	555.03192	396.12531	8.52070	551.99835	405.54709	
6147	61.460	-214.27614	21.22336	-436.77637	190.07861	24.94098	-453.87082	-174.35661	9.24971	153.58963	165.21297	14.60160	122.29225	71.81577	817.08386	-735.66846	-92.17664	603.15057	-486.86636	59.65525	606.86218	-478.68555	-143.40721	555.90259	394.82092	5.93076	553.26410	404.84460	
6148	61.470	-213.91518	21.25403	-436.99509	190.41638	25.61940	-453.52151	-174.25244	9.72501	153.32481	165.78113	14.64305	122.58981	71.48504	817.45667	-735.86108	-93.07890	603.99207	-487.53192	59.04621	608.03876	-479.58115	-145.12373	556.65082	394.02371	4.61820	554.27301	404.26776	
6149	61.480	-213.89575	21.37500	-436.96597	190.36256	25.52159	-453.76147	-174.48518	9.79019	153.29623	166.08017	14.59845	122.51181	70.91550	817.73743	-736.18781	-93.77625	604.74377	-488.38492	58.34627	608.74231	-480.01660	-146.39314	557.58752	393.30045	3.61088	555.02582	403.64758	
6150	61.490	-213.67058	21.30814	-437.02567	190.89198	26.24486	-453.26010	-174.21922	9.43365	153.22679	165.98354	14.52523	122.50334	69.88738	818.00519	-737.00531	-94.48369	605.04230	-489.20425	57.65325	609.58826	-481.11325	-147.66452	558.47601	392.36823	2.36320	556.42889	402.97150	
6151	61.500	-213.57820	21.14753	-436.99619	191.03391	26.65517	-453.33545	-174.21065	9.47540	153.12569	166.49847	14.53411	122.29577	68.39821	818.42090	-737.09888	-95.35725	605.46686	-489.99988	56.63125	610.08289	-481.80276	-148.27792	559.33551	391.52133	1.55894	557.24640	402.06223	
6152	61.510	-213.59254	21.20607	-436.98172	191.09169	26.98533	-453.23907	-173.60757	9.19121	153.15594	166.87721	14.46251	122.22095	67.85205	818.73566	-737.42078	-96.46873	606.00085	-490.97888	55.89300	610.75604	-482.59888	-148.72491	560.24109	390.64905	1.31399	558.38391	401.24741	
6153	61.520	-213.48268	21.27487	-436.93799	191.44576	27.40147	-452.96786	-173.34521	9.25146	153.06334	167.07777	14.46336	122.12888	67.04783	818.85767	-737.79089	-97.30826	606.32837	-491.77771	54.33476	611.46442	-484.32712	-148.85692	561.23700	389.83813	1.41993	559.40393	400.58224	
6154	61.530	-213.44392	21.33323	-436.85510	192.01924	28.27676	-453.92554	-173.39896	9.64084	153.18832	167.36185	14.48321	121.95197	66.62496	818.98230	-737.98462	-98.55905	606.78149	-492.82544	53.66214	611.73785	-484.94772	-148.71815	562.15265	388.91199	1.22989	560.56769	399.19781	
6155	61.540	-213.46863	21.26628	-436.81665	191.99553	28.48307	-454.20450	-172.96127	9.35294	153.15251	167.87123	14.37102	121.92548	66.43106	818.95154	-738.16998	-99.64230	606.86035	-493.86511	52.60455	612.15393	-485.95676	-148.53217	562.97113	388.09668	1.42351	561.48566	398.18155	
6156	61.550	-213.34149	21.21570	-436.77878	191.77040	28.53745	-454.24936	-170.88539	9.25188	153.41777	167.89424	14.37370	121.88914	66.66218	818.84668	-738.30554	-100.64539	606.93506	-494.84732	50.88889	612.93488	-488.11307	-148.66586	563.66699	387.01471	1.70866	562.39008	396.92749	
